<svg xmlns="http://www.w3.org/2000/svg" version="1.1" xmlns:xlink="http://www.w3.org/1999/xlink" xmlns:svgjs="http://svgjs.dev/svgjs" width="2000" height="1500" viewBox="0 0 2000 1500"><rect width="2000" height="1500" fill="#ececea"></rect><g transform="matrix(0.75,0,0,0.75,249.090909090909,426.3131751448662)"><svg viewBox="0 0 396 171" data-background-color="#ececea" preserveAspectRatio="xMidYMid meet" height="863" width="2000" xmlns="http://www.w3.org/2000/svg" xmlns:xlink="http://www.w3.org/1999/xlink"><g id="tight-bounds" transform="matrix(1,0,0,1,0.2400000000000091,0.01633379718484207)"><svg viewBox="0 0 395.52 170.96733240563032" height="170.96733240563032" width="395.52"><g><svg viewBox="0 0 651.682212516 281.69591790569274" height="170.96733240563032" width="395.52"><g transform="matrix(1,0,0,1,256.162212516,31.073454302528404)"><svg viewBox="0 0 395.52000000000004 219.54900930063593" height="219.54900930063593" width="395.52000000000004"><g id="textblocktransform"><svg viewBox="0 0 395.52000000000004 219.54900930063593" height="219.54900930063593" width="395.52000000000004" id="textblock"><g><svg viewBox="0 0 395.52000000000004 152.1225080434155" height="152.1225080434155" width="395.52000000000004"><rect width="395.52000000000004" height="152.1225080434155" x="0" y="0" opacity="1" fill="#009b7d" data-fill-palette-color="tertiary"></rect><g transform="matrix(1,0,0,1,23.461705032,23.461705032)"><svg width="348.59658993600004" viewBox="3.3 -35 157.38 47.5" height="105.1990979794155" data-palette-color="#ececea"><path d="M3.3 0L3.3-35 22-35 22-30.85 7.85-30.85 7.85-20.4 19.05-20.4 19.05-16.2 7.85-16.2 7.85-4.15 22.4-4.15 22.4 0 3.3 0ZM25.55-13.4L25.55-17.7 38.9-17.7 38.9-13.4 25.55-13.4ZM64-35L68.84-35 57.75 0 52.5 0 41.4-35 46.3-35 55.15-5.85 64-35ZM78.99 0.5Q75.69 0.5 73.29-1.18 70.89-2.85 69.62-5.75 68.34-8.65 68.34-12.25L68.34-12.25Q68.34-15.85 69.62-18.75 70.89-21.65 73.29-23.33 75.69-25 78.99-25L78.99-25Q82.24-25 84.64-23.33 87.04-21.65 88.29-18.75 89.54-15.85 89.54-12.25L89.54-12.25Q89.54-8.65 88.29-5.75 87.04-2.85 84.64-1.18 82.24 0.5 78.99 0.5L78.99 0.5ZM78.99-3.35Q81.89-3.35 83.49-5.7 85.09-8.05 85.09-12.25L85.09-12.25Q85.09-16.45 83.49-18.78 81.89-21.1 78.99-21.1L78.99-21.1Q75.99-21.1 74.39-18.78 72.79-16.45 72.79-12.25L72.79-12.25Q72.79-8 74.39-5.68 75.99-3.35 78.99-3.35L78.99-3.35ZM100.59 0.5Q97.74 0.5 96.37-1.2 94.99-2.9 94.99-5.35L94.99-5.35 94.99-21.05 91.59-21.05 91.99-24.5 94.99-24.5 94.99-30.55 99.34-31 99.34-24.5 104.64-24.5 104.64-21.05 99.34-21.05 99.34-7.1Q99.34-4.85 100.17-3.95 100.99-3.05 103.04-3.05L103.04-3.05 104.59-3.05 104.19 0.5 100.59 0.5ZM108.54-30.05L108.54-35 112.89-35 112.89-30.05 108.54-30.05ZM108.54 0L108.54-24.5 112.89-24.5 112.89 0 108.54 0ZM129.09-25Q132.89-25 134.91-22.03 136.94-19.05 136.94-14L136.94-14 136.94 0 132.59 0 132.59-13.45Q132.59-17.35 131.46-19.23 130.34-21.1 128.09-21.1L128.09-21.1Q126.44-21.1 125.04-20.18 123.64-19.25 122.69-17.6L122.69-17.6 122.69 0 118.34 0 118.34-24.5 122.04-24.5 122.34-21.45Q123.39-23.1 125.16-24.05 126.94-25 129.09-25L129.09-25ZM150.03 12.5Q145.68 12.5 142.96 10.73 140.23 8.95 140.23 5.85L140.23 5.85Q140.23 2.3 144.13-0.35L144.13-0.35Q141.83-1.45 141.83-3.7L141.83-3.7Q141.83-4.85 142.53-5.73 143.23-6.6 144.53-7.1L144.53-7.1Q142.68-8.4 141.68-10.6 140.68-12.8 140.68-15.45L140.68-15.45Q140.68-18.15 141.73-20.33 142.78-22.5 144.76-23.75 146.73-25 149.38-25L149.38-25Q152.58-25 154.78-23.2L154.78-23.2Q156.73-25 158.93-25L158.93-25Q159.58-25 160.18-24.9L160.18-24.9 159.73-21.4Q159.23-21.5 158.73-21.5L158.73-21.5Q157.68-21.5 156.63-21.05L156.63-21.05Q158.08-18.7 158.08-15.45L158.08-15.45Q158.08-12.75 157.03-10.53 155.98-8.3 154.01-6.98 152.03-5.65 149.38-5.65L149.38-5.65Q147.98-5.65 146.88-6L146.88-6Q145.93-5.6 145.93-4.85L145.93-4.85Q145.93-4.2 146.58-3.83 147.23-3.45 148.88-2.95L148.88-2.95 152.33-1.9Q155.43-0.95 157.21-0.03 158.98 0.9 159.83 2.18 160.68 3.45 160.68 5.35L160.68 5.35Q160.68 8.75 157.73 10.63 154.78 12.5 150.03 12.5L150.03 12.5ZM149.38-9.1Q151.53-9.1 152.73-10.83 153.93-12.55 153.93-15.4L153.93-15.4Q153.93-18.1 152.73-19.8 151.53-21.5 149.38-21.5L149.38-21.5Q147.23-21.5 146.03-19.83 144.83-18.15 144.83-15.4L144.83-15.4Q144.83-12.55 146.03-10.83 147.23-9.1 149.38-9.1L149.38-9.1ZM150.33 8.95Q153.03 8.95 154.66 8.1 156.28 7.25 156.28 5.6L156.28 5.6Q156.28 4.25 155.28 3.48 154.28 2.7 151.63 1.9L151.63 1.9 147.63 0.7Q144.23 2.85 144.23 5.2L144.23 5.2Q144.23 7.05 145.86 8 147.48 8.95 150.33 8.95L150.33 8.95Z" opacity="1" transform="matrix(1,0,0,1,0,0)" fill="#ececea" class="wordmark-text-0" data-fill-palette-color="quaternary" id="text-0"></path></svg></g></svg></g><g transform="matrix(1,0,0,1,0,163.8533605594155)"><svg viewBox="0 0 232.20979200000005 55.69564874122043" height="55.69564874122043" width="232.20979200000005"><g transform="matrix(1,0,0,1,0,0)"><svg width="232.20979200000005" viewBox="3.8 -35 200.73 48.15" height="55.69564874122043" data-palette-color="#009b7d"><path d="M5.65-18.5L5.65 0 3.8 0 3.8-35 21.7-35 21.7-33.15 5.65-33.15 5.65-20.35 21.7-20.35 21.7-18.5 5.65-18.5ZM41.25-22L41.25-25 43.1-25 43.1 0.05Q40.1 0.05 37.85-0.2 35.6-0.45 33.17-1.28 30.75-2.1 29.2-3.5 27.65-4.9 26.65-7.38 25.65-9.85 25.65-12.95 25.65-16.05 26.27-18.28 26.9-20.5 27.87-21.83 28.85-23.15 30.05-24L30.05-24Q32.15-25.55 34.2-25.55L34.2-25.55Q37.95-25.55 41.25-22L41.25-22ZM27.5-13.2L27.5-13.2Q27.5-6.65 31.55-4.1L31.55-4.1Q35.15-1.85 41.25-1.85L41.25-1.85 41.25-19.5Q39.55-21.45 37.97-22.58 36.4-23.7 34.5-23.7L34.5-23.7Q31.35-23.7 29.42-20.93 27.5-18.15 27.5-13.2ZM51.95-18.85L51.95 0 50.09 0 50.09-25 51.95-25 51.95-21.35Q52.99-22.6 55.17-24.03 57.34-25.45 59.32-25.45 61.3-25.45 62.77-24.33 64.25-23.2 64.3-20.65L64.3-20.65 62.45-20.65Q62.45-22.05 61.55-22.85 60.64-23.65 59.09-23.65 57.55-23.65 55.32-22.15 53.09-20.65 51.95-18.85L51.95-18.85ZM84.44-1.8L84.44-1.8 84.44 0.05Q81.44 0.05 79.17-0.2 76.89-0.45 74.44-1.28 71.99-2.1 70.42-3.5 68.84-4.9 67.82-7.38 66.79-9.85 66.79-13.28 66.79-16.7 67.72-19.25 68.64-21.8 70.09-23.1L70.09-23.1Q72.79-25.5 75.34-25.5L75.34-25.5Q79.59-25.5 81.97-23 84.34-20.5 84.34-16.4L84.34-16.4Q84.34-13.65 84.29-13.2L84.29-13.2 68.64-13.2Q68.64-6.75 72.49-4.28 76.34-1.8 84.44-1.8ZM68.69-15.05L82.49-15.05 82.49-16.15Q82.49-19.45 80.62-21.55 78.74-23.65 75.67-23.65 72.59-23.65 70.82-21.23 69.04-18.8 68.69-15.05L68.69-15.05ZM108.19 0L105.59 0 98.04-35 99.89-35 106.84-3 113.79-35 115.64-35 108.19 0ZM136.39-13.45L136.39-13.45Q136.39-10.05 135.74-7.48 135.09-4.9 134.11-3.5 133.14-2.1 131.79-1.25L131.79-1.25Q128.39 0.95 124.34-0.35L124.34-0.35Q122.94-0.8 121.39-1.98 119.84-3.15 118.89-5.7 117.94-8.25 117.94-11.95L117.94-11.95Q117.94-17.95 120.34-21.73 122.74-25.5 127.26-25.5 131.79-25.5 134.06-21.95 136.34-18.4 136.39-13.45ZM126.59-1.75L126.59-1.75 127.19-1.7 127.74-1.75Q134.54-2.4 134.54-13.2L134.54-13.2Q134.54-17.65 132.74-20.65 130.94-23.65 126.99-23.65L126.99-23.65Q124.44-23.65 122.74-21.9L122.74-21.9Q119.79-18.8 119.79-12.25L119.79-12.25 119.79-11.85Q119.79-7.7 121.49-4.88 123.19-2.05 126.59-1.75ZM143.98 0L143.98-23.15 138.23-23.15 138.23-25 143.98-25 143.98-33.25 145.83-33.25 145.83-25 151.63-25 151.63-23.15 145.83-23.15 145.83 0 143.98 0ZM157.43-25L157.43 0 155.58 0 155.58-25 157.43-25ZM155.68-28.95L155.68-33.25 157.53-33.25 157.53-28.95 155.68-28.95ZM181.83 0L179.98 0 180.03-13.2Q180.03-17.4 178-20.53 175.98-23.65 172.95-23.65 169.93-23.65 166.28-19.5L166.28-19.5 166.28 0 164.43 0 164.43-25 166.28-25 166.28-22Q169.53-25.5 173.33-25.5L173.33-25.5Q175.88-25.5 178.63-23.1L178.63-23.1Q180.03-21.8 180.95-19.25 181.88-16.7 181.88-13.25L181.88-13.25 181.83 0ZM202.68-22L202.68-25 204.53-25 204.53 0.85Q204.53 4.3 203.68 6.88 202.83 9.45 201.53 10.7L201.53 10.7Q198.98 13.15 196.48 13.15L196.48 13.15Q193.13 13.15 190.18 10.35L190.18 10.35 190.18 7.95Q193.33 11.3 196.43 11.3 199.53 11.3 201.1 8.33 202.68 5.35 202.68 0.8L202.68 0.8 202.68 0Q193.73-0.35 190.18-3.9L190.18-3.9Q187.08-7.1 187.08-13.25L187.08-13.25Q187.08-20.8 191.48-24L191.48-24Q193.58-25.55 195.63-25.55L195.63-25.55Q199.38-25.55 202.68-22L202.68-22ZM195.93-23.7Q192.98-23.7 190.95-20.55 188.93-17.4 188.93-13.68 188.93-9.95 189.98-7.65 191.03-5.35 192.98-4.1L192.98-4.1Q196.58-1.85 202.68-1.85L202.68-1.85 202.68-19.5Q200.98-21.45 199.4-22.58 197.83-23.7 195.93-23.7L195.93-23.7Z" opacity="1" transform="matrix(1,0,0,1,0,0)" fill="#009b7d" class="slogan-text-1" data-fill-palette-color="secondary" id="text-1"></path></svg></g></svg></g></svg></g></svg></g><g><svg viewBox="0 0 244.43136 281.69591790569274" height="281.69591790569274" width="244.43136"><g><svg xmlns:dc="http://purl.org/dc/elements/1.1/" xmlns:cc="http://creativecommons.org/ns#" xmlns:rdf="http://www.w3.org/1999/02/22-rdf-syntax-ns#" xmlns:svg="http://www.w3.org/2000/svg" xmlns="http://www.w3.org/2000/svg" xmlns:sodipodi="http://sodipodi.sourceforge.net/DTD/sodipodi-0.dtd" xmlns:inkscape="http://www.inkscape.org/namespaces/inkscape" xml:space="preserve" version="1.0" style="" viewBox="11.00000005 4.986 78.09399995 89.9997488" x="0" y="0" fill-rule="evenodd" height="281.69591790569274" width="244.43136" class="icon-icon-0" data-fill-palette-color="accent" id="icon-0"><path d="M29.047 37.254H49.16V47.311H29.047zM21.497 27.198H56.677V57.368H21.497z" class="" fill="#ffbf5d" fill-rule="evenodd" data-fill-palette-color="accent"></path><polygon class="" points="2279,3454 619,3454 735,2592 2163,2592 " transform="matrix(0.03386005,0,0,0.03386005,-9.9593709,-27.892374)" fill="#ffbf5d" fill-rule="evenodd" data-fill-palette-color="accent"></polygon><rect class="" x="15.774267" y="91.057983" width="7.8555317" height="3.9277658" fill="#ffbf5d" fill-rule="evenodd" data-fill-palette-color="accent"></rect><rect class="" x="54.577885" y="91.057983" width="7.8555317" height="3.9277658" fill="#ffbf5d" fill-rule="evenodd" data-fill-palette-color="accent"></rect><path d="M81.531 4.986C77.366 4.986 73.97 8.779 73.97 13.486 73.969 18.158 77.366 21.986 81.53 21.986S89.094 18.192 89.094 13.486C89.094 8.813 85.696 4.986 81.53 4.986" fill="#ffbf5d" fill-rule="evenodd" data-fill-palette-color="accent"></path><path d="M46.125 8.486L52.094 14.454C51.508 14.727 50.987 15.112 50.594 15.674 49.949 16.593 49.804 17.713 50.062 18.735L44.345 24.454 37.25 17.33zM46.125 6.704L35.438 17.392 44.312 26.236 50.595 19.954C50.844 20.324 51.146 20.654 51.53 20.924L63.97 29.547C64.646 30.022 65.409 30.208 66.187 30.173L74 30.83 73.969 65.423H76.625V91.204A3.757 3.757 0 0 0 80.375 94.954H82.656A3.757 3.757 0 0 0 86.406 91.204V65.424H89.062V31.485C89.063 27.423 86.028 24.324 82.033 23.986L67.374 22.736H67.344L55.844 14.736C55.135 14.24 54.309 14.065 53.5 14.11z" fill="#ffbf5d" fill-rule="evenodd" data-fill-palette-color="accent"></path><path d="M45.233 12.706C45.774 12.706 46.248 13.146 46.248 13.722V15.482H48.01C48.551 15.482 49.025 15.922 49.025 16.498 49.025 17.04 48.585 17.514 48.009 17.514H46.249V19.274A1.02 1.02 0 0 1 45.232 20.29C44.69 20.29 44.217 19.85 44.217 19.275V17.514H42.456C41.914 17.514 41.44 17.074 41.44 16.498 41.44 15.956 41.88 15.482 42.456 15.482H44.216V13.722A1.02 1.02 0 0 1 45.234 12.706" fill="#ffbf5d" fill-rule="evenodd" data-fill-palette-color="accent"></path></svg><g></g></g></svg></g></svg></g><defs></defs></svg><rect width="395.52" height="170.96733240563032" fill="none" stroke="none" visibility="hidden"></rect></g></svg></g></svg>